<?xml version="1.0" encoding="utf-8"?>
<!-- Generator: Adobe Illustrator 19.1.0, SVG Export Plug-In . SVG Version: 6.00 Build 0)  -->
<svg version="1.1" id="Layer_1" xmlns="http://www.w3.org/2000/svg" xmlns:xlink="http://www.w3.org/1999/xlink" x="0px" y="0px"
	 viewBox="-287.9 382.1 29.8 29.8" style="enable-background:new -287.9 382.1 29.8 29.8;" xml:space="preserve">
<style type="text/css">
	.st0{fill:#FFFFFF;}
</style>
<g transform="translate(96 384)">
	<path class="st0" d="M-354.2,21.9l-0.1-0.4c-0.4-1-1.5-2.1-2.6-2.4l-3.9-1.1c-1.1-0.3-2.6,0.1-3.4,0.9l-1.4,1.4
		c-5.2-1.4-9.2-5.4-10.6-10.6l1.4-1.4c0.8-0.8,1.2-2.3,0.9-3.4l-1.1-3.9c-0.3-1.1-1.4-2.2-2.4-2.6l-0.4-0.1c-1-0.3-2.5,0-3.3,0.8
		l-2.1,2.1c-0.4,0.4-0.6,1.5-0.6,1.5c-0.1,6.7,2.6,13.2,7.3,18c4.8,4.8,11.2,7.4,17.9,7.3c0,0,1.1-0.2,1.5-0.6l2.1-2.1
		C-354.2,24.4-353.9,22.9-354.2,21.9L-354.2,21.9z"/>
</g>
</svg>
