<?xml version="1.0" encoding="utf-8"?>
<!-- Generator: Adobe Illustrator 19.1.0, SVG Export Plug-In . SVG Version: 6.00 Build 0)  -->
<svg version="1.1" id="Layer_1" xmlns="http://www.w3.org/2000/svg" xmlns:xlink="http://www.w3.org/1999/xlink" x="0px" y="0px"
	 viewBox="175 365 64 64" style="enable-background:new 175 365 64 64;" xml:space="preserve">
<style type="text/css">
	.st0{fill:#171717;}
</style>
<g>
	<path class="st0" d="M216.1,365c0.4,0.1,0.9,0.2,1.3,0.3c3,0.8,4.7,2.9,5.7,5.7c0.1,0.3,0.3,0.6,0.5,0.7c3.2,1.6,4.4,5.1,2.6,8.3
		c-0.1,0.1-0.1,0.2-0.1,0.3c2.6,3.2,2.1,6.9-0.5,10.1c0.2,0.3,0.5,0.7,0.8,1c1.7,2.7,1.7,5.5,0.7,8.4c-0.9,2.5-2.6,4.3-4.9,5.6
		c-0.4,0.2-0.6,0.5-0.7,1c-0.5,1.9-1.6,3.3-3.2,4.3c-0.4,0.3-0.6,0.5-0.6,1c0,1.5-0.6,2.8-1.8,3.7c-0.2,0.1-0.3,0.5-0.3,0.7
		c0,1.3,0,2.7,0,4.1c0,4.5-2.8,7.9-7.3,8.7c-0.1,0-0.1,0.1-0.2,0.1c-0.7,0-1.3,0-2,0c-0.4-0.1-0.8-0.2-1.3-0.3
		c-3.7-1-6.2-4.3-6.2-8.1c0-1.5,0-3,0-4.4c0-0.3-0.2-0.6-0.4-0.7c-1.1-0.9-1.7-2-1.7-3.4c0-0.4-0.1-0.6-0.5-0.8
		c-0.7-0.3-1.4-0.7-2.1-1.2c-1.1-0.8-2-1.9-2-3.4c-4.5-1.4-5.9-5.2-3.3-8.8c-2.8-3.1-3-8.5,0.1-10.6c-0.1-0.1-0.1-0.3-0.2-0.4
		c-1-1.6-1.8-3.3-2.1-5.2c-0.5-3.2,0.5-5.8,3-7.8c1-0.8,2.2-1.4,3.4-2c0.4-0.2,0.7-0.4,0.8-0.9c0.8-2.9,2.6-4.9,5.7-5.5
		c2-0.4,3.9,0.2,5.5,1.3c0.9,0.6,1.8,1.4,2.8,2.1c0,0,0.1-0.2,0.2-0.3c1.6-1.9,3.7-3,6.2-3.4c0.1,0,0.2-0.1,0.3-0.1
		C214.8,365,215.5,365,216.1,365z M220.9,371.2c-0.6-2.2-2.6-3.9-5.1-4.1c-3.1-0.2-5.5,1.1-7.2,3.6c-0.8,1.1-1.3,1.1-2.2,0.1
		c-0.9-1.2-2-2.2-3.3-2.9c-2.4-1.3-4.9-0.8-6.5,1.3c-1.4,1.9-1.3,4-0.5,6.1c0.3,0.7,0.6,1.3,0.8,2c0.5,1.7,0.8,3.4,0.2,5.1
		c-0.5,1.5-2.1,2.6-3.7,2.5c-1.4-0.1-2.7-1.3-2.7-2.9c0-0.8,0.3-1.7,0.6-2.5c0.2-0.6,0.7-0.8,1.2-0.6c0.6,0.2,0.8,0.7,0.7,1.3
		c-0.1,0.3-0.2,0.6-0.3,0.9c-0.3,0.8-0.1,1.4,0.5,1.7c0.6,0.3,1.4-0.1,1.6-0.8c0.2-0.6,0.4-1.4,0.3-2.1c-0.5-2.1-1.2-4.2-1.8-6.2
		c-3.5,1.1-5.4,4-5,7.5c0.2,1.6,0.8,3,1.7,4.3c0.5,0.7,0.9,1.5,1.9,1.7c0.1,0,0.3,0.1,0.4,0.2c0.5,0.3,0.7,0.9,0.4,1.4
		c-0.3,0.5-0.8,0.7-1.4,0.4c-1.5-0.7-2.5-0.2-2.8,1.5c-0.4,2.2,0.2,4.2,1.7,5.8c0.1,0.1,0.3,0.3,0.5,0.3c1.4,0.2,2.3,1,2.8,2.4
		c0.2-0.3,0.3-0.5,0.4-0.6c1.5-2.6,3.7-3.9,6.7-3.8c0.6,0,1,0.2,1.1,0.8c0.2,0.7-0.3,1.3-1.2,1.3c-2.3,0-4,1-5,3.1
		c-0.2,0.4-0.5,0.7-0.8,1c-1.1,1-3.1,0.7-3.2-1.1c0-0.5-0.2-1-0.7-0.9c-0.4,0-0.7,0.4-1.1,0.6c-0.1,0.1-0.2,0.3-0.3,0.5
		c-0.6,1.7,0.7,3.9,2.5,4.3c0.4,0.1,0.6,0,0.8-0.3c0.6-0.5,1.2-1,1.9-1.3c0.5-0.3,1.1,0.1,1.3,0.6c0.2,0.5,0,1-0.6,1.3
		c-0.2,0.1-0.3,0.1-0.5,0.2c-1,0.6-1.2,1.9-0.4,2.7c1.8,1.9,4.1,2.4,6.6,2c2-0.3,3.8-1.1,5.1-2.8c0.8-0.9,1.3-1,2.1-0.1
		c1.4,1.5,3,2.4,5,2.8c1.4,0.3,2.8,0,4-0.8c1.9-1.3,2.5-3,1.9-5.2c-0.1-0.5-0.4-1-0.5-1.5c-0.8-2.3-0.6-3.7,0.9-4.9
		c0.8-0.7,1.2-1.4,1-2.5c-0.1-0.6,0.3-1,0.8-1.1c0.5-0.1,1.1,0.2,1.2,0.8c0.1,0.5,0.1,1,0.1,1.5c-0.1,1.1-0.7,2-1.6,2.7
		c-0.7,0.6-1,1.3-0.7,2.2c0.3,0.8,0.6,1.6,1,2.5c0.2-0.1,0.4-0.2,0.6-0.4c2.8-2,3.9-4.7,3.6-8.1c-0.3-3-2.5-4.8-5.6-4.7
		c-1.9,0-3.9,1.8-4.5,3.9c-0.5,1.7-0.4,3.5,0.1,5.2c0.2,1-0.3,1.6-1.3,1.4c-0.9-0.1-1.4,0.1-1.8,0.7c-0.4,0.7-0.3,1.7,0.2,2.3
		c0.5,0.5,1.3,0.7,2,0.4c0.1,0,0.2-0.1,0.3-0.1c0.5-0.1,1.1,0.1,1.3,0.6c0.2,0.5,0,1.1-0.5,1.3c-0.8,0.4-1.7,0.6-2.7,0.4
		c-1.7-0.4-2.9-1.8-3-3.7c-0.1-1.8,1-3.4,2.6-3.9c0.1,0,0.3-0.1,0.4-0.2c0-1.3-0.1-2.6,0-3.9c0.4-3.5,2.9-6,6.2-6.6
		c0.2,0,0.5-0.2,0.6-0.4c0.3-0.8,0.5-1.6,0.7-2.4c0.1-0.6,0.5-1.1,1.1-1c0.6,0,1,0.5,1,1.2c0,0.2,0,0.3,0,0.5
		c-0.2,0.8-0.4,1.6-0.6,2.4c0.5,0.2,0.9,0.4,1.4,0.5c0.1,0,0.4-0.1,0.5-0.2c0.5-0.9,1.1-1.7,1.4-2.6c0.7-2.2-0.1-4.1-2.2-5.2
		c-1.8-1-4.3-0.2-5.1,1.6c-0.3,0.7-0.4,1.6-0.6,2.4c0,0.1,0,0.2,0,0.4c0,0.6-0.5,1.1-1.1,1.1c-0.5,0-1-0.4-1-1
		c0-0.9,0.1-1.8,0.2-2.8c-1.3-0.4-3.1,0.5-3.9,1.5c-0.8,1.1-0.9,2.5-0.1,3.7c0.7,1.1,0.6,2.2,0,3.2c-0.2,0.4-0.5,0.8-0.8,1.2
		c-0.6,1-0.7,2-0.3,3.1c0.3,0.7,0.1,1.2-0.5,1.5c-0.6,0.2-1.2,0-1.4-0.7c-0.4-1-0.6-2.1-0.3-3.1c0.3-0.9,0.7-1.7,1.2-2.5
		c0.3-0.6,0.5-1.1,0.1-1.7c-0.7-1.2-1-2.5-0.6-4c0.8-2.8,4.1-4.8,7-4.1c0.4,0.1,0.6,0,1-0.3c0.7-0.5,1.5-1.1,2.3-1.4
		c0.7-0.3,0.9-0.6,0.9-1.3c0-0.2,0-0.3,0-0.5c0-0.7,0.3-1.2,0.9-1.3c0.6,0,1.1,0.4,1.1,1.1c0,0.5,0,1,0,1.6c0.5,0.1,1,0.2,1.4,0.4
		c0.5,0.2,0.7,0,0.8-0.4c0.6-1.5,0.2-3.3-1-4.3c-1.2-1.1-3.1-1.2-4.6-0.4c-1,0.6-1.7,1.4-2.2,2.5c-0.7,1.8-2.6,2.8-4.3,2.4
		c-1.8-0.4-3-2.1-2.9-4c0.1-1.9,1.4-3.3,3.3-3.6c0.4-0.1,0.8-0.3,1.1-0.5c0.6-0.5,1.1-0.6,1.6-0.1c0.5,0.4,0.4,1-0.1,1.6
		c-0.7,0.7-1.5,1-2.5,1.2c-0.9,0.1-1.4,0.8-1.4,1.6c0,0.8,0.5,1.5,1.3,1.7c0.7,0.2,1.6-0.3,1.9-1c0.1-0.2,0.2-0.4,0.3-0.6
		c0.8-1.6,2-2.8,3.7-3.4C219.5,371.5,220.2,371.4,220.9,371.2z M198.5,411.9c0,1.3,0.9,2.2,2.3,2.2c4.2,0,8.3,0,12.5,0
		c0.3,0,0.5,0,0.8-0.1c0.9-0.3,1.6-1.2,1.4-2.1c-3.9-0.2-3.9-0.2-8.3-2.9C204.7,411.2,201.8,412.1,198.5,411.9z M213.3,418.3
		c0-0.7,0-1.4,0-2.1c-4.2,0-8.4,0-12.7,0c0,0.7,0,1.4,0,2.1C204.9,418.3,209.1,418.3,213.3,418.3z M213.4,420.5c-4.3,0-8.5,0-12.8,0
		c0.1,0.5,0.1,1,0.2,1.5c0.1,0.4,0.3,0.6,0.7,0.6c3.4,0,6.8,0,10.2,0c1.5,0,1.6-0.2,1.7-1.7C213.4,420.8,213.4,420.7,213.4,420.5z
		 M202.3,424.7c2.5,3.1,7.5,2.6,9.4,0C208.5,424.7,205.5,424.7,202.3,424.7z"/>
	<path class="st0" d="M239,385.6c-0.3,0.5-0.8,0.7-1.5,0.7c-1.2,0-2.4,0-3.6,0c-0.8,0-1.3-0.4-1.3-1.1c0-0.7,0.4-1,1.3-1
		c1.2,0,2.4,0,3.6,0c0.6,0,1.1,0.1,1.5,0.7C239,385.1,239,385.4,239,385.6z"/>
	<path class="st0" d="M175,384.9c0.3-0.5,0.8-0.7,1.5-0.7c1.2,0,2.4,0,3.7,0c0.8,0,1.2,0.4,1.2,1c0,0.7-0.4,1.1-1.2,1.1
		c-1.3,0-2.6,0-3.9,0c-0.6,0-1-0.3-1.3-0.7C175,385.4,175,385.1,175,384.9z"/>
	<path class="st0" d="M184.6,397.8c-0.1,0.1-0.3,0.5-0.6,0.7c-1.2,0.7-2.4,1.4-3.5,2.1c-0.6,0.3-1.2,0.2-1.5-0.4
		c-0.3-0.5-0.1-1.1,0.4-1.4c1.2-0.7,2.4-1.4,3.6-2.1C183.8,396.2,184.6,396.7,184.6,397.8z"/>
	<path class="st0" d="M183.6,374.1c-0.2-0.1-0.4-0.1-0.6-0.2c-1.1-0.6-2.2-1.3-3.3-1.9c-0.7-0.4-0.9-1-0.5-1.5
		c0.3-0.6,0.9-0.7,1.6-0.3c1.1,0.7,2.3,1.3,3.4,2c0.5,0.3,0.7,0.7,0.5,1.2C184.5,373.8,184.1,374,183.6,374.1z"/>
	<path class="st0" d="M181.2,390.5c0.6,0,1.1,0.4,1.1,0.9c0.1,0.5-0.2,1-0.7,1.1c-0.8,0.3-1.6,0.5-2.5,0.7c-0.6,0.1-1.1-0.2-1.3-0.7
		c-0.2-0.5,0-1.1,0.5-1.2C179.4,390.9,180.4,390.7,181.2,390.5z"/>
	<path class="st0" d="M181.2,380c-0.8-0.2-1.7-0.4-2.6-0.7c-0.5-0.2-0.6-0.7-0.5-1.2c0.1-0.5,0.5-0.8,1.1-0.7
		c0.8,0.2,1.7,0.4,2.5,0.7c0.5,0.2,0.7,0.6,0.6,1.2C182.2,379.7,181.8,380,181.2,380z"/>
	<path class="st0" d="M235.2,371.1c-0.1,0.1-0.3,0.5-0.6,0.7c-1.2,0.7-2.4,1.4-3.6,2.1c-0.6,0.3-1.2,0.2-1.5-0.3
		c-0.3-0.5-0.1-1.1,0.5-1.5c1.2-0.7,2.4-1.4,3.6-2C234.3,369.5,235.1,370,235.2,371.1z"/>
	<path class="st0" d="M235.1,399.5c0,0.9-0.7,1.5-1.4,1.2c-1.4-0.7-2.7-1.5-4-2.3c-0.5-0.3-0.5-0.9-0.2-1.4c0.3-0.4,0.9-0.6,1.4-0.4
		c1.3,0.7,2.6,1.5,3.9,2.3C234.9,399,235,399.3,235.1,399.5z"/>
	<path class="st0" d="M234.7,393.3c-0.7-0.2-1.6-0.4-2.5-0.8c-0.5-0.2-0.7-0.8-0.5-1.3c0.2-0.5,0.7-0.8,1.2-0.7
		c0.8,0.2,1.6,0.4,2.5,0.7c0.5,0.2,0.8,0.6,0.7,1.2C236,392.9,235.5,393.3,234.7,393.3z"/>
	<path class="st0" d="M233,379.9c-0.8,0-1.3-0.4-1.4-0.9c-0.1-0.6,0.2-1,0.8-1.2c0.7-0.2,1.4-0.4,2-0.5c0.7-0.2,1.2,0.1,1.4,0.7
		c0.1,0.6-0.1,1.1-0.8,1.3C234.3,379.6,233.5,379.8,233,379.9z"/>
	<path class="st0" d="M205.7,379.4c-0.7,0.2-1.3,0.4-2,0.5c-2.4,0.3-4.4-1.6-4.2-4c0.1-0.7,0.2-1.3,0.3-2c0.1-0.9,0-1.8-0.7-2.5
		c-0.4-0.4-0.3-1,0.1-1.4c0.4-0.4,1-0.4,1.4,0c1.1,0.9,1.4,2.2,1.3,3.5c0,0.7-0.2,1.4-0.3,2.2c-0.1,0.7-0.1,1.4,0.6,1.8
		s1.6,0.4,2.3-0.1c0.7-0.5,0.9-1.2,0.7-2c-0.1-0.2-0.1-0.5-0.2-0.7c-0.2-0.7,0-1.3,0.6-1.5c0.6-0.2,1.1,0.1,1.4,0.9
		c0.5,1.6,0.8,3.3,0.7,5c-0.2,3.7-0.5,7.3-0.7,11c-0.3,3.9-0.2,7.9,0.9,11.7c0.2,0.9-0.1,1.5-0.8,1.6c-0.6,0.1-1-0.3-1.2-1
		c-0.7-2.8-1.1-5.8-1.1-8.7c0-0.2,0-0.4,0-0.7c-0.6-0.1-1.1-0.1-1.6-0.2c-0.7-0.2-1-0.7-0.8-1.3c0.2-0.6,0.7-0.8,1.4-0.7
		c1.1,0.2,1.2,0,1.2-0.8c0.1-1.2,0.2-2.4,0.3-3.7c-0.5,0.2-1.1,0.4-1.6,0.5c-2.9,0.5-5.7-2-5.5-4.9c0-0.8,0.4-1.2,1.1-1.2
		c0.6,0,1,0.4,1,1.2c0,2,1.6,3.3,3.4,2.8c1-0.3,1.8-1.2,1.9-2.2C205.6,381.4,205.6,380.4,205.7,379.4z"/>
	<path class="st0" d="M194.7,391.6c-0.2-1.8,1-3.1,2.3-3.4c1.2-0.3,2.8,0.6,3.2,1.7c0.2,0.5,0,1-0.5,1.3c-0.5,0.3-1,0.1-1.3-0.3
		c-0.1-0.1-0.2-0.3-0.3-0.4c-0.5-0.5-1.1-0.3-1.3,0.3c-0.1,0.3,0,0.6-0.1,0.9c-0.2,0.8-0.2,1.7-0.6,2.5c-0.5,1.2-1.8,1.8-3.1,1.7
		c-1.4-0.2-2.5-1.2-2.8-2.5c-0.1-0.7,0.1-1.2,0.7-1.4c0.6-0.2,1.1,0.1,1.3,0.8c0.2,0.6,0.5,1,1.2,1c0.7,0,0.9-0.5,1.1-1.1
		C194.6,392.2,194.7,391.8,194.7,391.6z"/>
	<path class="st0" d="M204.5,403.2c-0.1,1.7-0.8,3.1-2.1,4.2c-0.4,0.4-1,0.3-1.4-0.1c-0.4-0.4-0.4-1,0-1.4c0.6-0.6,1-1.2,1.2-2
		c0.2-0.7,0-1.4-0.5-1.9c-0.6-0.5-1.3-0.5-2-0.3c-0.1,0-0.3,0.1-0.4,0.2c-0.5,0.2-1.1,0-1.3-0.4s-0.1-1,0.3-1.4
		c1.3-0.8,2.7-0.9,4.1-0.1C203.8,400.6,204.4,401.8,204.5,403.2z"/>
</g>
</svg>
