<?xml version="1.0" encoding="utf-8"?>
<!-- Generator: Adobe Illustrator 19.1.0, SVG Export Plug-In . SVG Version: 6.00 Build 0)  -->
<svg version="1.1" id="Layer_1" xmlns="http://www.w3.org/2000/svg" xmlns:xlink="http://www.w3.org/1999/xlink" x="0px" y="0px"
	 viewBox="-204 179.1 202.4 435.9" style="enable-background:new -204 179.1 202.4 435.9;" xml:space="preserve">
<style type="text/css">
	.st0{fill:#3B5998;}
</style>
<path class="st0" d="M-70.7,397.3c0,73,0,145.2,0,217.7c-30.2,0-60.1,0-90.5,0c0-72.4,0-144.7,0-217.5c-14.5,0-28.4,0-42.7,0
	c0-25.9,0-51.3,0-77.1c14.2,0,28.1,0,42.7,0c0-2.4,0-4.4,0-6.3c0.2-18-0.6-36.1,0.8-54c2.3-29.2,13.8-53.7,40.3-69.1
	c13.7-8,28.8-11.4,44.5-11.6c23.5-0.4,47,0,70.5,0c0.6,0,1.3,0.2,2.2,0.3c0,24.7,0,49.3,0,74.5c-3.2,0-6.5,0-9.8,0
	c-12.7,0-25.3-0.1-38,0c-11.4,0.1-19,6-19.5,17.1c-0.7,16.1-0.2,32.3-0.2,49c22.9,0,45.7,0,68.9,0c-2.7,26-5.3,51.3-7.9,77.1
	C-29.9,397.3-50,397.3-70.7,397.3z"/>
</svg>
