<?xml version="1.0" encoding="utf-8"?>
<!-- Generator: Adobe Illustrator 19.1.0, SVG Export Plug-In . SVG Version: 6.00 Build 0)  -->
<svg version="1.1" id="Layer_1" xmlns="http://www.w3.org/2000/svg" xmlns:xlink="http://www.w3.org/1999/xlink" x="0px" y="0px"
	 viewBox="-80 194.6 450.1 404.4" style="enable-background:new -80 194.6 450.1 404.4;" xml:space="preserve">
<style type="text/css">
	.st0{fill:#D6492F;}
</style>
<g>
	<g>
		<path class="st0" d="M47.7,423.5c-5.9-11.1-7.2-22.9-4.6-35c-8-1.3-15.8-2.1-23.4-3.9c-46.4-11-76.4-50.8-73.6-98.3
			c1.3-21.5,11.3-39.5,26.2-54.7c23.7-24,52.8-36.3,86.4-36.7c39-0.5,78-0.1,117-0.1c6.6,0,10,2,11.5,6.7c1.7,5.4-1.1,8.8-5.3,11.7
			c-6.8,4.8-13.7,9.6-20.2,14.7c-4.6,3.6-9.3,5.7-15.1,5c-1.1-0.1-2.2,0.2-3.8,0.3c0.6,1.1,1,1.8,1.4,2.4
			c23.6,32.9,28.4,87.1-16.8,124c-5.5,4.5-11.2,9-16.2,14.1c-8,8-8.5,15.4-1.1,23.6c6.4,7.1,13.8,13.5,21,19.9
			c3.8,3.4,8.2,6.3,12.3,9.4c41.9,31.8,43.3,93.2,18.9,124.6c-14.7,19-33.6,31.5-56.1,39.1c-27.9,9.5-56.5,10.2-85.4,6.5
			c-19.6-2.5-38.7-7.2-56.2-16.5c-7.4-4-14.7-8.6-21.2-14c-23.8-20-29.8-47.9-16.8-76.1c12.6-26.7,34.4-43.5,61-54.6
			c17.2-7.2,35.3-10.8,53.9-11.3c1.7,0,3.3-0.1,5-0.2C46.8,424.1,47.1,423.9,47.7,423.5z M58,561c3.5-0.2,7-0.3,10.5-0.6
			c14.2-1.4,27.8-4.5,40.3-12c21.2-12.7,30.2-51.5,4.7-70.1c-9.2-6.6-18.4-13.2-27.7-19.7c-0.8-0.6-1.8-0.9-2.7-1.2
			c-30.8-7.4-59.2-2.8-84.3,17.2c-7.7,6.1-13.6,13.9-15.7,23.8c-4,19.2,3.7,34.3,18.2,46.2C17.7,558.1,37.3,561.8,58,561z
			 M7.1,279.3c0,2.7-0.1,5.3,0,8c0.1,2.2,0.5,4.3,0.9,6.4c4.5,23.3,14.8,43.1,35.2,56.3c12.2,8,25.4,9.9,38.5,1.6
			c7.8-4.9,12.4-12.4,15.3-21c7.2-21.2,4.3-41.7-4.9-61.6c-7-15.2-17.2-27.7-32.8-34.8c-19.1-8.8-37.2-2.3-46.5,16.5
			C8.4,259.8,6.7,269.4,7.1,279.3z"/>
		<path class="st0" d="M293.1,358.9c14.8,0,29.2,0,43.5,0c7.5,0,15-0.1,22.5,0c7.5,0.1,10.9,3.6,11,11.1c0,5.3,0.1,10.7,0,16
			c-0.1,7.6-3.6,11-11.6,11c-19.7,0.1-39.3,0-59,0c-2,0-3.9,0-6.6,0c0,2.2,0,4,0,5.8c0,19.7,0,39.3,0,59c0,9.4-3.2,12.5-12.7,12.5
			c-4.5,0-9,0-13.5,0c-8.6,0-11.9-3.2-11.9-11.7c0-19.8,0-39.7,0-59.5c0-1.8,0-3.6,0-6.1c-2.5,0-4.4,0-6.3,0c-19.5,0-39,0-58.5,0
			c-9.4,0-12.5-3.1-12.5-12.6c0-4.8-0.1-9.7,0-14.5c0.1-7.5,3.5-11,11.1-11c20.2-0.1,40.3-0.2,60.5,0.1c4.5,0.1,5.9-1.1,5.9-5.8
			c-0.3-19.8-0.1-39.7-0.1-59.5c0-9,3.1-12,12-12.1c4.8,0,9.7,0,14.5,0c8.1,0.1,11.6,3.5,11.6,11.6c0,20.5,0,41,0,61.5
			C292.9,355.9,293,357,293.1,358.9z"/>
	</g>
</g>
</svg>
