<?xml version="1.0" encoding="utf-8"?>
<!-- Generator: Adobe Illustrator 19.1.0, SVG Export Plug-In . SVG Version: 6.00 Build 0)  -->
<svg version="1.1" id="Layer_1" xmlns="http://www.w3.org/2000/svg" xmlns:xlink="http://www.w3.org/1999/xlink" x="0px" y="0px"
	 viewBox="106.9 365.1 64 64" style="enable-background:new 106.9 365.1 64 64;" xml:space="preserve">
<style type="text/css">
	.st0{fill:#171717;}
</style>
<path class="st0" d="M161.1,424.2c0.1-1.6-0.1-3.1-1.4-4.2c-0.7-0.5-1.5-0.8-2.4-0.8c-1.2,0.1-2.3,0.5-2.8,1.6c-0.5,1-0.7,2.1-1,3.3
	c-9.5,0-19.3,0-29.2,0c0-0.4,0-0.7,0-1.1c0-2.2-1.6-3.8-3.7-3.8c-2.1,0-3.7,1.6-3.7,3.8c0,0.4,0,0.7,0,1c-2.1,0-4.1,0.2-6-0.1
	c-2.2-0.3-3.8-2.4-3.8-4.8c0-4.1,0-8.3,0-12.4c0-10.5,0-21,0-31.5c0-2.5,1.3-4.4,3.5-5.1c0.5-0.1,1-0.2,1.6-0.2c3.9,0,7.7,0,11.6,0
	c2,0,3.5,0.8,4.5,2.6c0,0,0.1,0.1,0.1,0.1c0.5,0.7,0.8,1.7,1.4,2.1c0.7,0.4,1.7,0.1,2.6,0.1c11.1,0,22.1,0,33.2,0
	c3.5,0,5.5,2,5.5,5.5c0,12.8,0,25.6,0,38.3c0,3.4-2,5.4-5.4,5.4C164.1,424.2,162.7,424.2,161.1,424.2z M136.5,409.4
	c-0.4-1.8-1.4-3.2-3-4c-0.7-0.4-1.5-0.7-2.3-1.1c-1-0.5-1.6-1.3-1.4-2.5c0-0.3,0-0.6,0-0.9c0.1-0.3,0.2-0.6,0.3-0.8
	c0.5-0.9,1-1.7,1.5-2.6c0.1-0.2,0.2-0.4,0.4-0.5c0.7-0.5,1-1.9,0.6-2.6c-0.2-0.4-0.2-0.7-0.1-1.1c0.5-1.9,0.4-3.8-0.6-5.6
	c-0.5-0.8-1.4-1-2.1-1.4c-0.7-0.4-1.2-1.2-2.1-1.4c-2.5-0.7-5.4,0.6-6.5,3c-0.8,1.8-1,3.6-0.4,5.5c0.1,0.2,0.1,0.5,0,0.7
	c-0.5,0.9-0.4,1.8,0.2,2.4c0.6,0.6,0.8,1.4,1.2,2.1c0.2,0.4,0.5,0.8,0.8,1.2c1,1.2,0.7,3.2-0.5,4.1c-0.4,0.3-1,0.5-1.4,0.8
	c-0.6,0.3-1.4,0.6-2,1.1c-1.3,0.8-2,2-2.3,3.5C123.4,409.4,129.9,409.4,136.5,409.4z M151.3,392.2c-2.4,0-4.8,0-7.2,0
	c-0.3,0-0.7,0-1,0.1c-1.2,0.4-1.9,1.5-1.7,2.7c0.2,1.2,1.2,2.1,2.5,2.1c4.8,0,9.6,0,14.5,0c1.6,0,2.7-1.1,2.7-2.5
	c0-1.4-1.1-2.4-2.7-2.4C156.1,392.2,153.7,392.2,151.3,392.2z M151.2,407c2.4,0,4.8,0,7.1,0c0.3,0,0.7,0,1-0.1
	c1.2-0.3,1.9-1.5,1.7-2.7c-0.2-1.3-1.2-2.1-2.6-2.1c-4.8,0-9.6,0-14.4,0c-1.6,0-2.7,1-2.7,2.5c0,1.4,1.1,2.5,2.7,2.5
	C146.5,407,148.8,407,151.2,407z"/>
</svg>
