<?xml version="1.0" encoding="utf-8"?>
<!-- Generator: Adobe Illustrator 19.1.0, SVG Export Plug-In . SVG Version: 6.00 Build 0)  -->
<svg version="1.1" id="Layer_1" xmlns="http://www.w3.org/2000/svg" xmlns:xlink="http://www.w3.org/1999/xlink" x="0px" y="0px"
	 viewBox="-82 172.7 446.6 449.3" style="enable-background:new -82 172.7 446.6 449.3;" xml:space="preserve">
<style type="text/css">
	.st0{fill:#007AB9;}
	.st1{fill:#FFFFFF;}
</style>
<g>
	<g>
		<path class="st0" d="M-81.8,397.4c0-62.7,0.4-125.3-0.2-188c-0.3-24.3,17.5-36.8,36.6-36.7c124.6,0.3,249.3,0.2,373.9,0.2
			c22.6,0,36,13.4,36,36c0,125.8,0,251.6,0,377.4c0,22.4-13.2,35.7-35.7,35.7c-125.1,0-250.3,0-375.4,0c-17.5,0-30.3-9-34.1-24.3
			c-0.9-3.7-1-7.6-1-11.4C-81.8,523.4-81.8,460.4-81.8,397.4z M296.6,548.7c0-1.7,0-2.8,0-4c0-38.2,0.2-76.3-0.2-114.5
			c-0.1-9.3-1.1-18.7-3-27.7c-5.9-27.3-20.2-47.9-47.8-57.2c-10.6-3.6-21.5-4.4-32.5-3.8c-20.9,1.1-37.7,10-50.3,26.7
			c-1.2,1.5-2.3,3.1-3.5,4.6c-0.4-0.1-0.7-0.1-1.1-0.2c0-8.8,0-17.6,0-26.3c-22.9,0-45,0-67.1,0c0,67.6,0,134.8,0,202.2
			c22.4,0,44.5,0,67.2,0c0-2.4,0-4.5,0-6.6c0.1-37.5,0-75,0.3-112.5c0.1-13.2,7.1-23.1,18-30c20-12.5,44-3.1,49.8,19.6
			c2,7.6,2.6,15.8,2.7,23.7c0.3,33.3,0.1,66.6,0.1,100c0,1.9,0,3.8,0,5.8C252,548.7,274,548.7,296.6,548.7z M53.2,548.6
			c0-67.7,0-134.9,0-202.3c-22.4,0-44.5,0-66.9,0c0,67.5,0,134.8,0,202.3C8.7,548.6,30.7,548.6,53.2,548.6z M20.1,248.4
			c-16.9,0.1-30.2,8.2-35.5,21.8c-9.7,24.9,9,49.6,36.6,48.1c15.8-0.8,28.6-6.9,34.5-22.6C64.8,271.6,47.2,248.3,20.1,248.4z"/>
		<path class="st1" d="M296.6,548.7c-22.6,0-44.6,0-67.4,0c0-2,0-3.9,0-5.8c0-33.3,0.2-66.6-0.1-100c-0.1-7.9-0.7-16.1-2.7-23.7
			c-5.8-22.7-29.8-32.1-49.8-19.6c-10.9,6.8-17.9,16.7-18,30c-0.3,37.5-0.2,75-0.3,112.5c0,2.1,0,4.2,0,6.6c-22.7,0-44.8,0-67.2,0
			c0-67.4,0-134.6,0-202.2c22.1,0,44.2,0,67.1,0c0,8.7,0,17.5,0,26.3c0.4,0.1,0.7,0.1,1.1,0.2c1.2-1.5,2.3-3.1,3.5-4.6
			c12.6-16.7,29.4-25.5,50.3-26.7c11.1-0.6,22,0.2,32.5,3.8c27.6,9.3,41.9,29.9,47.8,57.2c2,9,2.9,18.5,3,27.7
			c0.3,38.1,0.2,76.3,0.2,114.5C296.6,545.9,296.6,547.1,296.6,548.7z"/>
		<path class="st1" d="M53.2,548.6c-22.4,0-44.5,0-66.9,0c0-67.5,0-134.7,0-202.3c22.4,0,44.5,0,66.9,0
			C53.2,413.7,53.2,481,53.2,548.6z"/>
		<path class="st1" d="M20.1,248.4c27.1-0.1,44.7,23.2,35.5,47.4c-6,15.7-18.7,21.8-34.5,22.6c-27.6,1.4-46.3-23.2-36.6-48.1
			C-10.1,256.6,3.1,248.5,20.1,248.4z"/>
	</g>
</g>
</svg>
