<?xml version="1.0" encoding="utf-8"?>
<!-- Generator: Adobe Illustrator 19.1.0, SVG Export Plug-In . SVG Version: 6.00 Build 0)  -->
<svg version="1.1" id="Layer_1" xmlns:sketch="http://www.bohemiancoding.com/sketch/ns"
	 xmlns="http://www.w3.org/2000/svg" xmlns:xlink="http://www.w3.org/1999/xlink" x="0px" y="0px" viewBox="-296 392 14 10"
	 style="enable-background:new -296 392 14 10;" xml:space="preserve">
<style type="text/css">
	.st0{fill:#FFFFFF;}
</style>
<title></title>
<g id="Icons_with_numbers">
	<g id="Group" transform="translate(-336.000000, 0.000000)">
		<path id="Shape" class="st0" d="M48.7,397.5l4.9,4.2c-0.2,0.2-0.4,0.3-0.7,0.3H41c-0.3,0-0.5-0.1-0.7-0.3l5-4.2L47,399L48.7,397.5
			z M47,398l-6.7-5.7c0.2-0.2,0.4-0.3,0.7-0.3h12c0.3,0,0.5,0.1,0.7,0.3L47,398z M54,401.2l-4.8-4.1l4.8-4.2V401.2L54,401.2z
			 M40,401.2v-8.3l4.8,4.2L40,401.2L40,401.2z"/>
	</g>
</g>
</svg>
