<?xml version="1.0" encoding="utf-8"?>
<!-- Generator: Adobe Illustrator 19.1.0, SVG Export Plug-In . SVG Version: 6.00 Build 0)  -->
<svg version="1.1" id="Layer_1" xmlns="http://www.w3.org/2000/svg" xmlns:xlink="http://www.w3.org/1999/xlink" x="0px" y="0px"
	 viewBox="-83 215.8 443.8 362.2" style="enable-background:new -83 215.8 443.8 362.2;" xml:space="preserve">
<style type="text/css">
	.st0{fill:#55ACEE;}
</style>
<path class="st0" d="M51.2,498.7c-26.1-1.6-47.4-10.8-64.5-28.9c-9.2-9.7-16.1-20.9-20.3-34.4c13.4,1.9,26,2,38.7-1.7
	c-26.4-7.3-46.7-22.2-59.9-46.2c-7.5-13.5-11-28.1-11-44.3c12.7,6.3,25.6,10.5,40,11.1c-40.5-33.7-49.6-74-27.6-122.1
	c49.9,58.6,112,90.4,188.3,95.8c-0.5-3.6-0.8-6.4-1.2-9.3c-6.6-54.9,35.3-102.8,90.3-102.9c24.6,0,45.9,8.6,63.6,25.7
	c2.5,2.4,4.5,3,7.9,2.2c16.6-3.9,32.5-9.8,47.5-17.9c1.4-0.8,2.9-1.5,5.4-2.8c-3.3,11-8.1,20.3-15,28.1
	c-6.8,7.7-14.5,14.5-21.7,21.5c16.1-1.8,32.1-6.7,49.1-13.6c-10.4,15.4-21.4,28.5-35,38.6c-8,5.9-10.2,12.3-10.2,21.9
	c-0.3,103.4-64.1,200.9-158.4,238.4c-80.6,32-159.6,25.8-235.2-18c-1.4-0.8-2.7-1.8-5-3.3C-33,541.1,11,529,51.2,498.7z"/>
</svg>
