<?xml version="1.0" encoding="utf-8"?>
<!-- Generator: Adobe Illustrator 19.1.0, SVG Export Plug-In . SVG Version: 6.00 Build 0)  -->
<svg version="1.1" id="Layer_1" xmlns="http://www.w3.org/2000/svg" xmlns:xlink="http://www.w3.org/1999/xlink" x="0px" y="0px"
	 viewBox="-83 180.5 443.7 433.5" style="enable-background:new -83 180.5 443.7 433.5;" xml:space="preserve">
<style type="text/css">
	.st0{fill:#CF3427;}
	.st1{fill:#FFFFFF;}
</style>
<g>
	<path class="st0" d="M138.5,387.1c46.3,0,92.6,0,139,0c41.9,0.1,76.4,27.2,80.9,68.6c3.3,30.7,2.9,62.4-0.6,93.2
		c-4.4,38.2-40.1,65-80.5,65.1c-60.2,0.1-120.3,0-180.5,0c-32.5,0-65,0.1-97.5,0c-39.4-0.2-71.5-25.4-80.1-63.1
		c-1.4-6.1-2-12.5-2-18.8c-0.2-21-0.2-42-0.1-63c0.3-42.3,28.2-74.7,70-81.3c4.4-0.7,9-0.7,13.4-0.7
		C46.5,387.1,92.5,387.1,138.5,387.1z M147.8,567.1c7.8,0,15,0,22.3,0c0.2-2.5,0.4-4.7,0.6-7.3c1.5,1.3,2.5,2.2,3.5,3.1
		c7.8,6.2,16.5,8,25.8,4.5c8.9-3.3,11.2-11.2,11.9-19.7c0.2-1.8,0.2-3.7,0.2-5.5c0-13,0.1-26,0-39c-0.1-9.7,0.2-19.4-0.8-28.9
		c-1.9-18.8-20.3-26.4-35.4-15c-1.7,1.3-3.2,2.6-5.8,4.6c0-16.7,0-32.4,0-48c-7.9,0-15.1,0-22.5,0
		C147.8,466.4,147.8,516.5,147.8,567.1z M289.3,514.3c0-12.8,0.6-24.9-0.2-37c-0.6-8.8-5.1-16.3-13.3-20.6c-19-10-51.8-3-52,29.5
		c-0.1,16.5-0.3,33,0.1,49.5c0.1,5.7,1.1,11.7,3.2,17c6.1,15.5,24.2,21.9,42.9,16c14.7-4.7,22.9-20.9,19.1-38c-7.4,0-14.8,0-22.2,0
		c-0.2,4.4-0.1,8.4-0.6,12.4c-0.7,5.5-3.6,7.8-9.1,8c-5.3,0.1-9.1-2.3-9.4-7.6c-0.5-9.6-0.1-19.2-0.1-29.2
		C261.4,514.3,275.1,514.3,289.3,514.3z M108.5,455.6c0,2.1,0,3.9,0,5.7c0,24.3-0.2,48.7,0.2,73c0.1,5.9-2.1,9.7-6.9,11.9
		c-2.9,1.4-6.9,2.5-9.6,1.6c-1.7-0.6-2.7-5.3-2.7-8.2c-0.2-26.2-0.1-52.3-0.1-78.5c0-1.8,0-3.6,0-5.4c-7.8,0-15,0-22.3,0
		c-0.1,1.4-0.2,2.4-0.2,3.4c0,30,0,60,0,90c0,2.5,0.3,5,0.8,7.4c1.6,8.7,7.6,13.9,16.3,12.4c5.8-1,11.4-4.1,16.9-6.8
		c2.7-1.3,4.8-3.9,7.9-6.6c0,4.6,0,8.1,0,11.5c7.6,0,14.7,0,21.8,0c0-37.3,0-74.2,0-111.4C123.3,455.6,116.3,455.6,108.5,455.6z
		 M5.8,437.6c0,43.6,0,86.5,0,129.5c8.5,0,16.6,0,25,0c0-2.3,0-4.3,0-6.3c0-34.6,0-69.3,0-103.9c0-6.3,0.5-12.5,0.7-18.8
		c6.1-0.2,12.2-0.4,18.4-0.5c2.3-0.1,4.5,0,6.7,0c0-7.8,0-14.7,0-21.8c-25.8,0-51.2,0-76.8,0c0,7.3,0,14.4,0,21.9
		C-11.6,437.6-3.3,437.6,5.8,437.6z"/>
	<path class="st0" d="M63.3,348c-9.7,0-18.7,0-28.3,0c-0.1-1.8-0.2-3.5-0.2-5.3c0-18.8,0.1-37.7-0.1-56.5c0-3.1-0.5-6.3-1.5-9.3
		C23.1,246.8,13,216.7,2.9,186.6c-0.6-1.7-1-3.4-1.7-5.9c9.2,0,17.7-0.1,26.3,0.2c1.1,0,2.6,2.2,3,3.7c5.4,19.2,10.7,38.5,16,57.7
		c0.5,1.7,1,3.4,2.7,5.3c0.5-1.2,1.1-2.3,1.4-3.6c5.2-19.6,10.5-39.2,15.5-58.9c0.9-3.4,2.1-4.6,5.7-4.5c7.8,0.3,15.6,0.1,24.1,0.1
		c-0.6,2.3-1,4-1.6,5.7c-9.7,28.8-19.5,57.7-29.1,86.5c-1.2,3.7-1.9,7.8-1.9,11.7c-0.2,19.2-0.1,38.3-0.1,57.5
		C63.3,343.8,63.3,345.6,63.3,348z"/>
	<path class="st0" d="M98.4,285.1c0-10.2,0-20.3,0-30.5c0-17.4,8.6-28.2,25.5-32c8.4-1.9,16.9-1.9,25.2,0.7
		c13.9,4.3,22.4,15.6,22.5,30.2c0.1,20.8,0.1,41.6,0,62.4c0,20.4-10,32.3-30.2,34.7c-6.6,0.8-13.7,0.1-20.2-1.6
		c-13.5-3.5-22.2-15-22.6-29C98.2,308.4,98.5,296.8,98.4,285.1L98.4,285.1z M124.4,286.1c0,10.8-0.1,21.6,0,32.5
		c0.1,7.6,3.4,11.2,10.2,11.2c7.1,0,11.1-3.9,11.1-11.2c0.1-21.8,0.1-43.6,0-65.4c0-6.8-3.6-10.1-10.7-10.2
		c-7.1-0.1-10.6,3.1-10.6,10.1C124.3,264.1,124.4,275.1,124.4,286.1z"/>
	<path class="st0" d="M238.7,224.7c8.6,0,16.6,0,24.9,0c0,41.1,0,82,0,123.1c-8.2,0-16.1,0-24.7,0c0-4,0-8,0-12.9
		c-3.2,2.7-5.3,5.3-8,6.6c-6.2,3.1-12.4,6.6-19.1,8c-9.8,2.1-17.2-3.9-19-13.9c-0.5-2.6-0.7-5.3-0.7-8c0-33,0-66,0-99
		c0-1.1,0.2-2.3,0.3-3.8c8.2,0,16.2,0,25,0c0,2,0,3.9,0,5.9c0,28.3,0,56.7,0,85c0,1.7,0,3.3,0.1,5c0.5,5.5,3.5,7.7,8.8,6.4
		c7.8-1.9,12.5-7.8,12.5-15.9c0-26.8,0-53.7,0-80.5C238.7,228.9,238.7,227.1,238.7,224.7z"/>
	<path class="st1" d="M147.8,567.1c0-50.6,0-100.7,0-151.2c7.3,0,14.5,0,22.5,0c0,15.6,0,31.3,0,48c2.5-2,4.1-3.4,5.8-4.6
		c15.1-11.4,33.5-3.8,35.4,15c1,9.6,0.7,19.3,0.8,28.9c0.1,13,0,26,0,39c0,1.8,0,3.7-0.2,5.5c-0.8,8.5-3,16.4-11.9,19.7
		c-9.3,3.5-18,1.7-25.8-4.5c-1-0.8-2-1.7-3.5-3.1c-0.2,2.7-0.4,4.8-0.6,7.3C162.9,567.1,155.6,567.1,147.8,567.1z M170.5,511.3
		c0,10.5,0,21,0.1,31.5c0,1.5,0.3,3.5,1.2,4.5c3.3,3.5,7.6,5,12.3,3.6c4.6-1.3,4.7-5.5,5-9.3c0.1-0.8,0-1.7,0-2.5
		c0-17.8,0-35.7,0-53.5c0-2.5-0.1-5-0.7-7.4c-1.2-4.7-5.2-6.9-10.5-6.1c-5.1,0.8-7.4,3.3-7.4,8.2
		C170.4,490.6,170.5,500.9,170.5,511.3z"/>
	<path class="st1" d="M289.3,514.3c-14.1,0-27.9,0-41.6,0c0,10-0.4,19.6,0.1,29.2c0.3,5.2,4.1,7.7,9.4,7.6c5.5-0.1,8.3-2.5,9.1-8
		c0.5-3.9,0.4-8,0.6-12.4c7.4,0,14.8,0,22.2,0c3.8,17.1-4.3,33.3-19.1,38c-18.7,5.9-36.7-0.5-42.9-16c-2.1-5.3-3-11.3-3.2-17
		c-0.4-16.5-0.2-33-0.1-49.5c0.2-32.5,32.9-39.5,52-29.5c8.2,4.3,12.7,11.8,13.3,20.6C289.9,489.3,289.3,501.5,289.3,514.3z
		 M266.4,496.4c0-5.7,0.4-11.2-0.1-16.6c-0.4-4.4-3.3-7.2-8-7.5c-4.5-0.3-9,0.6-10,5.4c-1.2,6-1.1,12.3-1.6,18.6
		C254,496.4,260.1,496.4,266.4,496.4z"/>
	<path class="st1" d="M108.5,455.6c7.8,0,14.7,0,22,0c0,37.2,0,74.1,0,111.4c-7,0-14.1,0-21.8,0c0-3.4,0-6.9,0-11.5
		c-3.2,2.7-5.3,5.2-7.9,6.6c-5.4,2.7-11,5.8-16.9,6.8c-8.7,1.5-14.7-3.7-16.3-12.4c-0.5-2.4-0.8-5-0.8-7.4c-0.1-30,0-60,0-90
		c0-1,0.1-2,0.2-3.4c7.3,0,14.5,0,22.3,0c0,1.8,0,3.6,0,5.4c0,26.2-0.1,52.3,0.1,78.5c0,2.9,1.1,7.6,2.7,8.2
		c2.7,0.9,6.7-0.2,9.6-1.6c4.8-2.2,7-6,6.9-11.9c-0.4-24.3-0.2-48.7-0.2-73C108.5,459.5,108.5,457.7,108.5,455.6z"/>
	<path class="st1" d="M5.8,437.6c-9.1,0-17.4,0-25.9,0c0-7.5,0-14.5,0-21.9c25.6,0,51,0,76.8,0c0,7.2,0,14.1,0,21.8
		c-2.2,0-4.5,0-6.7,0c-6.1,0.2-12.2,0.4-18.4,0.5c-0.2,6.3-0.7,12.5-0.7,18.8c-0.1,34.6,0,69.3,0,103.9c0,2,0,3.9,0,6.3
		c-8.4,0-16.5,0-25,0C5.8,524.1,5.8,481.2,5.8,437.6z"/>
	<path class="st0" d="M170.5,511.3c0-10.3,0-20.7,0-31c0-4.9,2.3-7.3,7.4-8.2c5.3-0.8,9.4,1.4,10.5,6.1c0.6,2.4,0.7,5,0.7,7.4
		c0.1,17.8,0,35.7,0,53.5c0,0.8,0,1.7,0,2.5c-0.3,3.9-0.4,8-5,9.3c-4.7,1.3-9-0.2-12.3-3.6c-1-1-1.2-3-1.2-4.5
		C170.4,532.3,170.5,521.8,170.5,511.3z"/>
	<path class="st0" d="M266.4,496.4c-6.3,0-12.4,0-19.7,0c0.5-6.3,0.4-12.6,1.6-18.6c1-4.9,5.5-5.7,10-5.4c4.7,0.3,7.6,3.1,8,7.5
		C266.8,485.2,266.4,490.7,266.4,496.4z"/>
</g>
</svg>
